<svg width="16" height="19" viewBox="0 0 16 19" fill="none" xmlns="http://www.w3.org/2000/svg">
<path opacity="0.2" d="M3.5 1H10.185C10.393 0.99991 10.5987 1.04307 10.7891 1.12673C10.9795 1.2104 11.1504 1.33275 11.291 1.486L15.605 6.188C15.859 6.46464 15.9999 6.82647 16 7.202V17.5C16 17.8978 15.842 18.2794 15.5607 18.5607C15.2794 18.842 14.8978 19 14.5 19H3.5C3.10218 19 2.72064 18.842 2.43934 18.5607C2.15804 18.2794 2 17.8978 2 17.5V2.5C2 2.10218 2.15804 1.72064 2.43934 1.43934C2.72064 1.15804 3.10218 1 3.5 1Z" fill="black"/>
<path d="M3.5 11.5C3.36739 11.5 3.24021 11.4473 3.14645 11.3536C3.05268 11.2598 3 11.1326 3 11C3 10.8674 3.05268 10.7402 3.14645 10.6464C3.24021 10.5527 3.36739 10.5 3.5 10.5H10.5C10.6326 10.5 10.7598 10.5527 10.8536 10.6464C10.9473 10.7402 11 10.8674 11 11C11 11.1326 10.9473 11.2598 10.8536 11.3536C10.7598 11.4473 10.6326 11.5 10.5 11.5H3.5ZM3.5 14C3.36739 14 3.24021 13.9473 3.14645 13.8536C3.05268 13.7598 3 13.6326 3 13.5C3 13.3674 3.05268 13.2402 3.14645 13.1464C3.24021 13.0527 3.36739 13 3.5 13H10.5C10.6326 13 10.7598 13.0527 10.8536 13.1464C10.9473 13.2402 11 13.3674 11 13.5C11 13.6326 10.9473 13.7598 10.8536 13.8536C10.7598 13.9473 10.6326 14 10.5 14H3.5Z" fill="black"/>
<path fill-rule="evenodd" clip-rule="evenodd" d="M8.185 1.39742e-07H1.5C1.10218 1.39742e-07 0.720644 0.158035 0.43934 0.43934C0.158035 0.720645 0 1.10218 0 1.5V16.5C0 16.8978 0.158035 17.2794 0.43934 17.5607C0.720644 17.842 1.10218 18 1.5 18H12.5C12.8978 18 13.2794 17.842 13.5607 17.5607C13.842 17.2794 14 16.8978 14 16.5V6.202C13.9999 5.82647 13.859 5.46464 13.605 5.188L9.291 0.486C9.15041 0.332745 8.97949 0.2104 8.78909 0.126735C8.59869 0.0430688 8.39297 -8.96262e-05 8.185 1.39742e-07ZM1 1.5C1 1.36739 1.05268 1.24022 1.14645 1.14645C1.24021 1.05268 1.36739 1 1.5 1H8.185C8.25438 0.999924 8.32302 1.01429 8.38654 1.04218C8.45007 1.07007 8.5071 1.11087 8.554 1.162L12.868 5.864C12.9528 5.95616 12.9999 6.07678 13 6.202V16.5C13 16.6326 12.9473 16.7598 12.8536 16.8536C12.7598 16.9473 12.6326 17 12.5 17H1.5C1.36739 17 1.24021 16.9473 1.14645 16.8536C1.05268 16.7598 1 16.6326 1 16.5V1.5Z" fill="black"/>
<path d="M8.5 1.09998V5.79998H13.2" fill="black"/>
<path d="M8.5 1.09998V5.79998H13.2" stroke="black" stroke-linecap="round" stroke-linejoin="round"/>
<path d="M5.13401 5.13301C5.27681 5.13738 5.41904 5.11303 5.55225 5.06141C5.68547 5.00978 5.80696 4.93192 5.90952 4.83246C6.01207 4.73299 6.09361 4.61394 6.1493 4.48237C6.20498 4.3508 6.23367 4.20938 6.23367 4.06651C6.23367 3.92364 6.20498 3.78223 6.1493 3.65066C6.09361 3.51908 6.01207 3.40003 5.90952 3.30057C5.80696 3.2011 5.68547 3.12325 5.55225 3.07162C5.41904 3.01999 5.27681 2.99564 5.13401 3.00001C4.85681 3.0085 4.5938 3.12458 4.40073 3.32367C4.20765 3.52275 4.09967 3.78918 4.09967 4.06651C4.09967 4.34384 4.20765 4.61028 4.40073 4.80936C4.5938 5.00844 4.85681 5.12452 5.13401 5.13301Z" fill="black"/>
<path fill-rule="evenodd" clip-rule="evenodd" d="M7.266 7.44401C7.266 6.31001 6.311 5.48901 5.133 5.48901C3.955 5.48901 3 6.30901 3 7.44401V7.97801C3.00026 8.07226 3.03789 8.16255 3.10462 8.2291C3.17136 8.29564 3.26176 8.33301 3.356 8.33301H6.911C7.00507 8.33275 7.09521 8.29526 7.16173 8.22874C7.22825 8.16223 7.26574 8.07208 7.266 7.97801V7.44401Z" fill="black"/>
</svg>
