<svg width="28" height="25" viewBox="0 0 28 25" fill="none" xmlns="http://www.w3.org/2000/svg">
<path d="M23.625 10.9375H4.375C4.14294 10.9375 3.92038 10.8552 3.75628 10.7087C3.59219 10.5622 3.5 10.3635 3.5 10.1562C3.5 9.94905 3.59219 9.75034 3.75628 9.60382C3.92038 9.45731 4.14294 9.375 4.375 9.375H23.625C23.8571 9.375 24.0796 9.45731 24.2437 9.60382C24.4078 9.75034 24.5 9.94905 24.5 10.1562C24.5 10.3635 24.4078 10.5622 24.2437 10.7087C24.0796 10.8552 23.8571 10.9375 23.625 10.9375Z" fill="#589BFB"/>
<path d="M20.125 17.1875H7.875C7.64294 17.1875 7.42038 17.1052 7.25628 16.9587C7.09219 16.8122 7 16.6135 7 16.4062C7 16.199 7.09219 16.0003 7.25628 15.8538C7.42038 15.7073 7.64294 15.625 7.875 15.625H20.125C20.3571 15.625 20.5796 15.7073 20.7437 15.8538C20.9078 16.0003 21 16.199 21 16.4062C21 16.6135 20.9078 16.8122 20.7437 16.9587C20.5796 17.1052 20.3571 17.1875 20.125 17.1875Z" fill="#589BFB"/>
<path d="M16.625 23.4375H11.375C11.1429 23.4375 10.9204 23.3552 10.7563 23.2087C10.5922 23.0622 10.5 22.8635 10.5 22.6562C10.5 22.449 10.5922 22.2503 10.7563 22.1038C10.9204 21.9573 11.1429 21.875 11.375 21.875H16.625C16.8571 21.875 17.0796 21.9573 17.2437 22.1038C17.4078 22.2503 17.5 22.449 17.5 22.6562C17.5 22.8635 17.4078 23.0622 17.2437 23.2087C17.0796 23.3552 16.8571 23.4375 16.625 23.4375Z" fill="#589BFB"/>
<path d="M25.375 4.6875H2.625C2.39294 4.6875 2.17038 4.60519 2.00628 4.45868C1.84219 4.31216 1.75 4.11345 1.75 3.90625C1.75 3.69905 1.84219 3.50034 2.00628 3.35382C2.17038 3.20731 2.39294 3.125 2.625 3.125H25.375C25.6071 3.125 25.8296 3.20731 25.9937 3.35382C26.1578 3.50034 26.25 3.69905 26.25 3.90625C26.25 4.11345 26.1578 4.31216 25.9937 4.45868C25.8296 4.60519 25.6071 4.6875 25.375 4.6875Z" fill="#589BFB"/>
</svg>
