<svg width="142" height="80" viewBox="0 0 142 80" fill="none" xmlns="http://www.w3.org/2000/svg">
<path d="M34.1273 2.333C32.9851 1.06162 31.013 1 29.7936 2.19757L25.1794 6.72917C23.9822 7.90497 23.9822 9.83416 25.1794 11.01L28.7893 14.5553C29.9866 15.7311 29.9866 17.6602 28.7893 18.836L25.1794 22.3813C23.9822 23.5571 23.9822 25.4863 25.1794 26.6621L28.7893 30.2074C29.9866 31.3832 29.9866 33.3124 28.7893 34.4882L25.1794 38.0335C23.9822 39.2093 23.9822 41.1385 25.1794 42.3143L28.9939 46.0605C30.1093 47.156 31.8791 47.2111 33.0606 46.1873L37.5428 42.3032C38.8667 41.156 38.9301 39.1232 37.6802 37.8956L34.2107 34.4882C33.0134 33.3124 33.0134 31.3832 34.2107 30.2074L37.8206 26.6621C39.0178 25.4863 39.0178 23.5571 37.8206 22.3813L34.2107 18.836C33.0134 17.6602 33.0134 15.7311 34.2107 14.5553L37.9526 10.8803C39.0978 9.75564 39.1549 7.92888 38.0822 6.73493L34.1273 2.333Z" fill="#589BFB"/>
<path d="M34.1273 34.333C32.9851 33.0616 31.013 33 29.7936 34.1976L25.1794 38.7292C23.9822 39.905 23.9822 41.8342 25.1794 43.01L28.7893 46.5553C29.9866 47.7311 29.9866 49.6602 28.7893 50.836L25.1794 54.3813C23.9822 55.5571 23.9822 57.4863 25.1794 58.6621L28.7893 62.2074C29.9866 63.3832 29.9866 65.3124 28.7893 66.4882L25.1794 70.0335C23.9822 71.2093 23.9822 73.1385 25.1794 74.3143L28.9939 78.0605C30.1093 79.156 31.8791 79.2111 33.0606 78.1873L37.5428 74.3032C38.8667 73.156 38.9301 71.1232 37.6802 69.8956L34.2107 66.4882C33.0134 65.3124 33.0134 63.3832 34.2107 62.2074L37.8206 58.6621C39.0178 57.4863 39.0178 55.5571 37.8206 54.3813L34.2107 50.836C33.0134 49.6602 33.0134 47.7311 34.2107 46.5553L37.9526 42.8803C39.0978 41.7556 39.1549 39.9289 38.0822 38.7349L34.1273 34.333Z" fill="#589BFB"/>
<path d="M22.6514 26.5442C21.5014 25.1843 19.4269 25.1198 18.1946 26.4056L13.9892 30.7938C12.8772 31.9542 12.8772 33.7849 13.9892 34.9453L17.5108 38.6199C18.6228 39.7803 18.6228 41.611 17.5108 42.7714L13.9892 46.446C12.8772 47.6064 12.8772 49.4371 13.9892 50.5975L17.5108 54.2721C18.6228 55.4325 18.6228 57.2631 17.5108 58.4235L13.9892 62.0982C12.8772 63.2586 12.8772 65.0892 13.9892 66.2496L17.4654 69.8769C18.5956 71.0562 20.4616 71.1146 21.6633 70.0082L25.7484 66.247C26.9846 65.1088 27.045 63.1774 25.8824 61.9642L22.4892 58.4235C21.3772 57.2631 21.3772 55.4325 22.4892 54.2721L26.0108 50.5975C27.1228 49.4371 27.1228 47.6064 26.0108 46.446L22.4892 42.7714C21.3772 41.611 21.3772 39.7803 22.4892 38.6199L26.1311 34.8198C27.1934 33.7112 27.2473 31.9794 26.2559 30.807L22.6514 26.5442Z" fill="#589BFB"/>
<path d="M22.6514 10.5442C21.5014 9.18432 19.4269 9.11979 18.1946 10.4056L13.9892 14.7938C12.8772 15.9542 12.8772 17.7849 13.9892 18.9453L17.5108 22.6199C18.6228 23.7803 18.6228 25.611 17.5108 26.7714L13.9892 30.446C12.8772 31.6064 12.8772 33.4371 13.9892 34.5975L17.5108 38.2721C18.6228 39.4325 18.6228 41.2631 17.5108 42.4235L13.9892 46.0982C12.8772 47.2586 12.8772 49.0892 13.9892 50.2496L17.4654 53.8769C18.5956 55.0562 20.4616 55.1146 21.6633 54.0082L25.7484 50.247C26.9846 49.1088 27.045 47.1774 25.8824 45.9642L22.4892 42.4235C21.3772 41.2631 21.3772 39.4325 22.4892 38.2721L26.0108 34.5975C27.1228 33.4371 27.1228 31.6064 26.0108 30.446L22.4892 26.7714C21.3772 25.611 21.3772 23.7803 22.4892 22.6199L26.1311 18.8198C27.1934 17.7112 27.2473 15.9794 26.2559 14.807L22.6514 10.5442Z" fill="#589BFB"/>
<path d="M2.29255 23.0006L6.28039 19.1456C7.49583 17.9707 9.44156 18.0315 10.5812 19.2801L14.1032 23.1387C15.1699 24.3073 15.1456 26.1034 14.0477 27.2428L10.5293 30.894C9.4003 32.0657 7.54309 32.1238 6.34307 31.0249L2.35165 27.3701C1.0767 26.2027 1.04964 24.2021 2.29255 23.0006Z" fill="#589BFB"/>
<path d="M48.2926 23.0006L52.2804 19.1456C53.4958 17.9707 55.4416 18.0315 56.5812 19.2801L60.1032 23.1387C61.1699 24.3073 61.1456 26.1034 60.0477 27.2428L56.5293 30.894C55.4003 32.0657 53.5431 32.1238 52.3431 31.0249L48.3516 27.3701C47.0767 26.2027 47.0496 24.2021 48.2926 23.0006Z" fill="#589BFB"/>
<path d="M45.6514 26.5442C44.5014 25.1843 42.4269 25.1198 41.1946 26.4056L36.9892 30.7938C35.8772 31.9542 35.8772 33.7849 36.9892 34.9453L40.5108 38.6199C41.6228 39.7803 41.6228 41.611 40.5108 42.7714L36.9892 46.446C35.8772 47.6064 35.8772 49.4371 36.9892 50.5975L40.5108 54.2721C41.6228 55.4325 41.6228 57.2631 40.5108 58.4235L36.9892 62.0982C35.8772 63.2586 35.8772 65.0892 36.9892 66.2496L40.4654 69.8769C41.5956 71.0562 43.4616 71.1146 44.6633 70.0082L48.7484 66.247C49.9846 65.1088 50.045 63.1774 48.8824 61.9642L45.4892 58.4235C44.3772 57.2631 44.3772 55.4325 45.4892 54.2721L49.0108 50.5975C50.1228 49.4371 50.1228 47.6064 49.0108 46.446L45.4892 42.7714C44.3772 41.611 44.3772 39.7803 45.4892 38.6199L49.1311 34.8198C50.1934 33.7112 50.2473 31.9794 49.2559 30.807L45.6514 26.5442Z" fill="#589BFB"/>
<path d="M45.6514 10.5442C44.5014 9.18432 42.4269 9.11979 41.1946 10.4056L36.9892 14.7938C35.8772 15.9542 35.8772 17.7849 36.9892 18.9453L40.5108 22.6199C41.6228 23.7803 41.6228 25.611 40.5108 26.7714L36.9892 30.446C35.8772 31.6064 35.8772 33.4371 36.9892 34.5975L40.5108 38.2721C41.6228 39.4325 41.6228 41.2631 40.5108 42.4235L36.9892 46.0982C35.8772 47.2586 35.8772 49.0892 36.9892 50.2496L40.4654 53.8769C41.5956 55.0562 43.4616 55.1146 44.6633 54.0082L48.7484 50.247C49.9846 49.1088 50.045 47.1774 48.8824 45.9642L45.4892 42.4235C44.3772 41.2631 44.3772 39.4325 45.4892 38.2721L49.0108 34.5975C50.1228 33.4371 50.1228 31.6064 49.0108 30.446L45.4892 26.7714C44.3772 25.611 44.3772 23.7803 45.4892 22.6199L49.1311 18.8198C50.1934 17.7112 50.2473 15.9794 49.2559 14.807L45.6514 10.5442Z" fill="#589BFB"/>
<path d="M76.0859 23.625H78.0703L80.9922 31.9766L83.9141 23.625H85.8984L81.7891 35H80.1953L76.0859 23.625ZM75.0156 23.625H76.9922L77.3516 31.7656V35H75.0156V23.625ZM84.9922 23.625H86.9766V35H84.6328V31.7656L84.9922 23.625ZM98.5307 33.1719V35H92.476V33.1719H98.5307ZM93.2417 23.625V35H90.8979V23.625H93.2417ZM97.7417 28.2578V30.0391H92.476V28.2578H97.7417ZM98.5229 23.625V25.4609H92.476V23.625H98.5229ZM108.358 31.2266H110.694C110.647 31.9922 110.436 32.6719 110.061 33.2656C109.692 33.8594 109.173 34.3229 108.507 34.6562C107.845 34.9896 107.048 35.1562 106.116 35.1562C105.387 35.1562 104.733 35.0312 104.155 34.7812C103.577 34.526 103.082 34.1615 102.671 33.6875C102.265 33.2135 101.955 32.6406 101.741 31.9688C101.528 31.2969 101.421 30.5443 101.421 29.7109V28.9219C101.421 28.0885 101.53 27.3359 101.749 26.6641C101.973 25.987 102.291 25.4115 102.702 24.9375C103.119 24.4635 103.616 24.099 104.194 23.8438C104.772 23.5885 105.418 23.4609 106.132 23.4609C107.08 23.4609 107.879 23.6328 108.53 23.9766C109.186 24.3203 109.694 24.7943 110.054 25.3984C110.418 26.0026 110.637 26.6901 110.71 27.4609H108.366C108.34 27.0026 108.249 26.6146 108.093 26.2969C107.936 25.974 107.699 25.7318 107.382 25.5703C107.069 25.4036 106.653 25.3203 106.132 25.3203C105.741 25.3203 105.4 25.3932 105.108 25.5391C104.817 25.6849 104.572 25.9062 104.374 26.2031C104.176 26.5 104.028 26.875 103.929 27.3281C103.835 27.776 103.788 28.3021 103.788 28.9062V29.7109C103.788 30.2995 103.832 30.8177 103.921 31.2656C104.009 31.7083 104.145 32.0833 104.327 32.3906C104.515 32.6927 104.754 32.9219 105.046 33.0781C105.343 33.2292 105.699 33.3047 106.116 33.3047C106.606 33.3047 107.009 33.2266 107.327 33.0703C107.645 32.9141 107.887 32.6823 108.054 32.375C108.226 32.0677 108.327 31.6849 108.358 31.2266ZM118.952 23.625V35H116.616V23.625H118.952ZM122.452 23.625V25.4609H113.17V23.625H122.452ZM134.779 29.0469V29.5859C134.779 30.4505 134.662 31.2266 134.428 31.9141C134.193 32.6016 133.863 33.1875 133.435 33.6719C133.008 34.151 132.498 34.5182 131.904 34.7734C131.316 35.0286 130.662 35.1562 129.943 35.1562C129.23 35.1562 128.576 35.0286 127.982 34.7734C127.394 34.5182 126.883 34.151 126.451 33.6719C126.019 33.1875 125.683 32.6016 125.443 31.9141C125.209 31.2266 125.092 30.4505 125.092 29.5859V29.0469C125.092 28.1771 125.209 27.401 125.443 26.7188C125.678 26.0312 126.008 25.4453 126.435 24.9609C126.868 24.4766 127.378 24.1068 127.967 23.8516C128.56 23.5964 129.214 23.4688 129.928 23.4688C130.646 23.4688 131.3 23.5964 131.889 23.8516C132.482 24.1068 132.993 24.4766 133.42 24.9609C133.852 25.4453 134.185 26.0312 134.42 26.7188C134.659 27.401 134.779 28.1771 134.779 29.0469ZM132.412 29.5859V29.0312C132.412 28.4271 132.357 27.8958 132.248 27.4375C132.139 26.9792 131.977 26.5938 131.764 26.2812C131.55 25.9688 131.29 25.7344 130.982 25.5781C130.675 25.4167 130.323 25.3359 129.928 25.3359C129.532 25.3359 129.18 25.4167 128.873 25.5781C128.571 25.7344 128.313 25.9688 128.099 26.2812C127.891 26.5938 127.732 26.9792 127.623 27.4375C127.514 27.8958 127.459 28.4271 127.459 29.0312V29.5859C127.459 30.1849 127.514 30.7161 127.623 31.1797C127.732 31.638 127.894 32.026 128.107 32.3438C128.321 32.6562 128.581 32.8932 128.889 33.0547C129.196 33.2161 129.547 33.2969 129.943 33.2969C130.339 33.2969 130.691 33.2161 130.998 33.0547C131.305 32.8932 131.563 32.6562 131.771 32.3438C131.98 32.026 132.139 31.638 132.248 31.1797C132.357 30.7161 132.412 30.1849 132.412 29.5859Z" fill="#EE4037"/>
<path d="M79.4453 48.9453H76.5469V47.1172H79.4453C79.8932 47.1172 80.2578 47.0443 80.5391 46.8984C80.8203 46.7474 81.026 46.5391 81.1562 46.2734C81.2865 46.0078 81.3516 45.7083 81.3516 45.375C81.3516 45.0365 81.2865 44.7214 81.1562 44.4297C81.026 44.138 80.8203 43.9036 80.5391 43.7266C80.2578 43.5495 79.8932 43.4609 79.4453 43.4609H77.3594V53H75.0156V41.625H79.4453C80.3359 41.625 81.099 41.7865 81.7344 42.1094C82.375 42.4271 82.8646 42.8672 83.2031 43.4297C83.5417 43.9922 83.7109 44.6354 83.7109 45.3594C83.7109 46.0938 83.5417 46.7292 83.2031 47.2656C82.8646 47.8021 82.375 48.2161 81.7344 48.5078C81.099 48.7995 80.3359 48.9453 79.4453 48.9453ZM96.5385 47.0469V47.5859C96.5385 48.4505 96.4214 49.2266 96.187 49.9141C95.9526 50.6016 95.6219 51.1875 95.1948 51.6719C94.7677 52.151 94.2573 52.5182 93.6635 52.7734C93.075 53.0286 92.4214 53.1562 91.7026 53.1562C90.9891 53.1562 90.3354 53.0286 89.7417 52.7734C89.1531 52.5182 88.6427 52.151 88.2104 51.6719C87.7781 51.1875 87.4422 50.6016 87.2026 49.9141C86.9682 49.2266 86.851 48.4505 86.851 47.5859V47.0469C86.851 46.1771 86.9682 45.401 87.2026 44.7188C87.437 44.0312 87.7677 43.4453 88.1948 42.9609C88.6271 42.4766 89.1375 42.1068 89.726 41.8516C90.3198 41.5964 90.9734 41.4688 91.687 41.4688C92.4057 41.4688 93.0594 41.5964 93.6479 41.8516C94.2417 42.1068 94.7521 42.4766 95.1792 42.9609C95.6115 43.4453 95.9448 44.0312 96.1792 44.7188C96.4188 45.401 96.5385 46.1771 96.5385 47.0469ZM94.1714 47.5859V47.0312C94.1714 46.4271 94.1167 45.8958 94.0073 45.4375C93.8979 44.9792 93.7365 44.5938 93.5229 44.2812C93.3094 43.9688 93.049 43.7344 92.7417 43.5781C92.4344 43.4167 92.0828 43.3359 91.687 43.3359C91.2911 43.3359 90.9396 43.4167 90.6323 43.5781C90.3302 43.7344 90.0724 43.9688 89.8589 44.2812C89.6505 44.5938 89.4917 44.9792 89.3823 45.4375C89.2729 45.8958 89.2182 46.4271 89.2182 47.0312V47.5859C89.2182 48.1849 89.2729 48.7161 89.3823 49.1797C89.4917 49.638 89.6531 50.026 89.8667 50.3438C90.0802 50.6562 90.3406 50.8932 90.6479 51.0547C90.9552 51.2161 91.3068 51.2969 91.7026 51.2969C92.0984 51.2969 92.45 51.2161 92.7573 51.0547C93.0646 50.8932 93.3224 50.6562 93.5307 50.3438C93.7391 50.026 93.8979 49.638 94.0073 49.1797C94.1167 48.7161 94.1714 48.1849 94.1714 47.5859ZM106.686 49.2266H109.022C108.976 49.9922 108.765 50.6719 108.39 51.2656C108.02 51.8594 107.502 52.3229 106.835 52.6562C106.173 52.9896 105.377 53.1562 104.444 53.1562C103.715 53.1562 103.061 53.0312 102.483 52.7812C101.905 52.526 101.41 52.1615 100.999 51.6875C100.593 51.2135 100.283 50.6406 100.069 49.9688C99.8557 49.2969 99.749 48.5443 99.749 47.7109V46.9219C99.749 46.0885 99.8583 45.3359 100.077 44.6641C100.301 43.987 100.619 43.4115 101.03 42.9375C101.447 42.4635 101.944 42.099 102.522 41.8438C103.101 41.5885 103.746 41.4609 104.46 41.4609C105.408 41.4609 106.207 41.6328 106.858 41.9766C107.515 42.3203 108.022 42.7943 108.382 43.3984C108.746 44.0026 108.965 44.6901 109.038 45.4609H106.694C106.668 45.0026 106.577 44.6146 106.421 44.2969C106.265 43.974 106.028 43.7318 105.71 43.5703C105.397 43.4036 104.981 43.3203 104.46 43.3203C104.069 43.3203 103.728 43.3932 103.436 43.5391C103.145 43.6849 102.9 43.9062 102.702 44.2031C102.504 44.5 102.356 44.875 102.257 45.3281C102.163 45.776 102.116 46.3021 102.116 46.9062V47.7109C102.116 48.2995 102.16 48.8177 102.249 49.2656C102.338 49.7083 102.473 50.0833 102.655 50.3906C102.843 50.6927 103.082 50.9219 103.374 51.0781C103.671 51.2292 104.028 51.3047 104.444 51.3047C104.934 51.3047 105.338 51.2266 105.655 51.0703C105.973 50.9141 106.215 50.6823 106.382 50.375C106.554 50.0677 106.655 49.6849 106.686 49.2266ZM117.28 41.625V53H114.944V41.625H117.28ZM120.78 41.625V43.4609H111.498V41.625H120.78ZM127.764 43.5703L124.67 53H122.178L126.404 41.625H127.99L127.764 43.5703ZM130.334 53L127.232 43.5703L126.982 41.625H128.584L132.834 53H130.334ZM130.193 48.7656V50.6016H124.185V48.7656H130.193Z" fill="#589BFB"/>
<circle cx="31.5" cy="72.5" r="7.5" fill="#EE4037"/>
</svg>
