<svg width="72" height="75" viewBox="0 0 72 75" fill="none" xmlns="http://www.w3.org/2000/svg">
<path d="M18.9699 42.4066H15.8309V38.9019H13.0407V36.0981H15.8309V33.2944H18.9699V36.0981H21.76V39.2523H18.9699V42.4066Z" fill="#AFCDF9"/>
<path d="M28.0379 33.6449H24.899V30.1402H22.1088V27.3365H24.899V24.5327H28.0379V27.3365H30.8281V30.4907H28.0379V33.6449Z" fill="#AFCDF9"/>
<path d="M28.0379 33.6449H24.899V30.1402H22.1088V27.3365H24.899V24.5327H28.0379V27.3365H30.8281V30.4907H28.0379V33.6449Z" fill="#AFCDF9"/>
<path d="M37.106 42.4066H33.9671V38.9019H31.1769V36.0981H33.9671V33.2944H37.106V36.0981H39.8962V39.2523H37.106V42.4066Z" fill="#AFCDF9"/>
<path d="M37.106 42.4066H33.9671V38.9019H31.1769V36.0981H33.9671V33.2944H37.106V36.0981H39.8962V39.2523H37.106V42.4066Z" fill="#AFCDF9"/>
<path fill-rule="evenodd" clip-rule="evenodd" d="M13.3895 75H21.76V72.1963H24.899V69.0421H28.0379V72.1963H30.8281V75H39.8962V72.1963H36.7572V69.3925H33.9671V66.2383H30.8281V63.4346H33.9671V60.2804H36.7572V63.4346H39.8962V66.2383H43.0351V69.3925H45.8253V66.2383H48.9643V63.4346H45.8253V60.2804H43.0351V57.1262H39.8962V54.3224H43.0351V51.5187H45.8253V54.3224H48.9643V57.1262H51.4057V60.2804H54.8934V57.1262H57.6836V54.3224H54.8934V51.5187H51.7544V48.3645H48.9643V45.5608H51.7544V42.4066H54.8934V45.2103H57.6836V48.3645H60.8225V51.5187H63.9615V48.3645H66.7516V44.8598H63.9615V42.4066H60.8225V38.9019H58.0323V36.4486H60.8225V33.2944H63.9615V30.4907H66.7516V26.986H63.9615V23.8318H60.8225V26.986H57.6836V29.7897H54.8934V33.2944H52.1032V29.7897H48.9643V26.986H52.1032V24.5327H54.8934V21.3785H58.0323V17.8738H54.8934V15.0701H51.7544V17.8738H48.9643V21.3785H45.8253V23.8318H43.0351V21.3785H39.8962V18.5748H43.0351V15.0701H45.8253V11.9159H48.9643V9.11217H45.8253V5.95796H43.0351V9.11217H39.8962V11.9159H36.7572V15.0701H33.9671V11.9159H31.1769V9.11217H33.9671V5.95796H37.106V3.50469H39.8962V1.52588e-05H30.8281V2.80376H28.0379V5.95796H24.899V2.80376H22.1088V1.52588e-05H12.692V3.50469H15.8309V5.95796H18.6211V9.11217H22.1088V11.9159H18.6211V15.0701H16.1797V11.9159H12.692V9.11217H10.2506V5.95796H6.76283V9.11217H3.62388V11.9159H6.76283V15.0701H10.2506V17.8738H12.692V21.3785H10.2506V23.8318H6.76283V21.3785H3.62388V17.8738H1.18247V15.0701H-2.65402V17.8738H-5.09543V21.3785H-2.65402V23.8318H1.18247V26.986H3.62388V30.4907H1.18247V33.2944H-1.95648V30.4907H-5.09543V26.986H-7.53683V24.1823H-11.0246V26.986H-14.1635V30.4907H-11.0246V33.2944H-8.23438V36.4486H-5.09543V38.9019H-8.23438V42.0561H-11.0246V44.8598H-14.1635V48.3645H-11.0246C-11.0246 48.3645 -11.8446 50.6031 -11.0246 51.5187C-10.1134 52.536 -7.53683 51.5187 -7.53683 51.5187V48.3645H-4.74666V45.5608H-1.95648V42.0561H1.18247V44.8598H3.62388V48.014H1.18247V50.8178H-1.95648V53.972H-5.09543V57.1262H-1.95648V60.2804H1.18247V57.1262H3.62388V54.3224H6.76283V51.5187H9.90178V53.972H12.692V57.1262H10.2506V60.2804H6.76283V62.7336H3.62388V66.2383H6.76283V69.3925H10.2506V66.5888H12.692V63.4346H16.1797V60.2804H18.6211V63.4346H22.1088V66.2383H18.6211V69.0421H15.8309V72.1963H13.3895V75ZM28.0379 60.2804H24.899V56.7757H22.1088V53.972H18.9699V51.1682H16.1797V48.014H13.0407V44.8598H10.2506V42.0561H6.76283V38.9019H4.32142V36.0981H6.76283V32.9439H10.2506V29.7897H13.0407V26.986H16.1797V24.1823H18.9699V21.028H22.1088V18.5748H24.899V15.0701H28.0379V18.5748H30.8281V21.3785H33.9671V24.1823H36.7572V27.3365H39.8962V30.4907H43.0351V32.9439H45.8253V36.4486H48.9643V38.9019H45.8253V42.4066H43.0351V45.2103H39.8962V48.3645H36.7572V51.5187H33.9671V54.3224H31.1769V57.4766H28.0379V60.2804Z" fill="#AFCDF9"/>
<path d="M24.899 51.5187H28.0379V48.3645H30.8281V45.2103H28.0379V42.4066H24.899V45.2103H22.1088V48.014H24.899V51.5187Z" fill="#AFCDF9"/>
<path d="M-18 51.1682V59.5794H-16.6049V62.7336H-13.466V66.2383H-16.6049V69.0421H-18V75H-13.466V72.1963H-11.0246V69.3925H-7.53683V72.1963H-4.74666V75H3.62388V72.1963H1.18247V69.3925H-1.95648V66.2383H-4.74666V63.4346H-7.53683V60.2804H-10.6758V57.4766H-13.466V54.3224H-16.2561V51.1682H-18Z" fill="#AFCDF9"/>
<path d="M-18 42.0561V33.2944H-16.6049V36.0981H-14.1635V38.9019H-16.6049V42.0561H-18Z" fill="#AFCDF9"/>
<path d="M-18 23.8318V15.4206H-16.6049V12.2664H-13.466V8.7617H-16.6049V5.95796H-18V1.52588e-05H-13.466V2.80376H-11.0246V5.60749H-7.53683V2.80376H-4.74666V1.52588e-05H3.62388V2.80376H1.18247V5.60749H-1.95648V8.7617H-4.74666V11.5654H-7.53683V14.7196H-10.6758V17.5234H-13.466V20.6776H-16.2561V23.8318H-18Z" fill="#AFCDF9"/>
<path d="M71.2857 51.1682V59.5794H69.8906V62.7336H66.7516V66.2383H69.8906V69.0421H71.2857V75H66.7516V72.1963H64.3102V69.3925H60.8225V72.1963H58.0323V75H49.6618V72.1963H52.1032V69.3925H55.2422V66.2383H58.0323V63.4346H60.8225V60.2804H63.9615V57.4766H66.7516V54.3224H69.5418V51.1682H71.2857Z" fill="#AFCDF9"/>
<path d="M71.2857 42.0561V33.2944H69.8906V36.0981H67.4492V38.9019H69.8906V42.0561H71.2857Z" fill="#AFCDF9"/>
<path d="M71.2857 23.8318V15.4206H69.8906V12.2664H66.7516V8.7617H69.8906V5.95796H71.2857V1.52588e-05H66.7516V2.80376H64.3102V5.60749H60.8225V2.80376H58.0323V1.52588e-05H49.6618V2.80376H52.1032V5.60749H55.2422V8.7617H58.0323V11.5654H60.8225V14.7196H63.9615V17.5234H66.7516V20.6776H69.5418V23.8318H71.2857Z" fill="#AFCDF9"/>
</svg>
