<svg width="72" height="63" viewBox="0 0 72 63" fill="none" xmlns="http://www.w3.org/2000/svg">
<path fill-rule="evenodd" clip-rule="evenodd" d="M6 8C6 7.44772 6.59614 7 7.33152 7H55.6685C56.4039 7 57 7.44772 57 8C57 8.55228 56.4039 9 55.6685 9H7.33152C6.59614 9 6 8.55228 6 8Z" fill="#EE4037"/>
<path fill-rule="evenodd" clip-rule="evenodd" d="M32 25H28V22H32V25Z" fill="#EE4037"/>
<path fill-rule="evenodd" clip-rule="evenodd" d="M17 22H25V25H17V22Z" fill="#EE4037"/>
<path fill-rule="evenodd" clip-rule="evenodd" d="M18 30H11V27H18V30Z" fill="#EE4037"/>
<path fill-rule="evenodd" clip-rule="evenodd" d="M28 30H20V27H28V30Z" fill="#EE4037"/>
<path fill-rule="evenodd" clip-rule="evenodd" d="M38.4876 33.317C39.0918 33.8005 39.1734 34.6628 38.6699 35.243L36.2776 38L38.6699 40.757C39.1734 41.3372 39.0918 42.1995 38.4876 42.683C37.8834 43.1665 36.9855 43.0881 36.4821 42.5079L33.33 38.8755C32.89 38.3683 32.89 37.6317 33.33 37.1245L36.4821 33.4921C36.9855 32.9119 37.8834 32.8335 38.4876 33.317Z" fill="#EE4037"/>
<path fill-rule="evenodd" clip-rule="evenodd" d="M47.5124 33.317C48.1166 32.8335 49.0145 32.9119 49.5179 33.4921L52.67 37.1245C53.11 37.6317 53.11 38.3683 52.67 38.8755L49.5179 42.5079C49.0145 43.0881 48.1166 43.1665 47.5124 42.683C46.9082 42.1995 46.8266 41.3372 47.3301 40.757L49.7224 38L47.3301 35.243C46.8266 34.6628 46.9082 33.8005 47.5124 33.317Z" fill="#EE4037"/>
<path fill-rule="evenodd" clip-rule="evenodd" d="M44.0931 33.0705C44.7877 33.3094 45.1631 34.0838 44.9316 34.8002L42.5839 42.0646C42.3523 42.7811 41.6015 43.1683 40.9069 42.9295C40.2123 42.6906 39.8369 41.9162 40.0684 41.1998L42.4161 33.9354C42.6477 33.2189 43.3985 32.8317 44.0931 33.0705Z" fill="#EE4037"/>
<path fill-rule="evenodd" clip-rule="evenodd" d="M43 25.6828C36.1974 25.6828 30.6828 31.1974 30.6828 38C30.6828 44.8026 36.1974 50.3172 43 50.3172C49.8026 50.3172 55.3172 44.8026 55.3172 38C55.3172 31.1974 49.8026 25.6828 43 25.6828ZM28 38C28 29.7157 34.7157 23 43 23C51.2843 23 58 29.7157 58 38C58 46.2843 51.2843 53 43 53C34.7157 53 28 46.2843 28 38Z" fill="#EE4037"/>
<path fill-rule="evenodd" clip-rule="evenodd" d="M51.3745 47.3745C51.8739 46.8752 52.6836 46.8752 53.183 47.3745L62.6255 56.817C63.1248 57.3164 63.1248 58.1261 62.6255 58.6255C62.1261 59.1249 61.3164 59.1248 60.817 58.6255L51.3745 49.183C50.8752 48.6836 50.8752 47.8739 51.3745 47.3745Z" fill="#EE4037"/>
<path fill-rule="evenodd" clip-rule="evenodd" d="M32 25H28V22H32V25Z" fill="#EE4037"/>
<path fill-rule="evenodd" clip-rule="evenodd" d="M17 22H25V25H17V22Z" fill="#EE4037"/>
<path fill-rule="evenodd" clip-rule="evenodd" d="M18 30H11V27H18V30Z" fill="#EE4037"/>
<path fill-rule="evenodd" clip-rule="evenodd" d="M28 30H20V27H28V30Z" fill="#EE4037"/>
<path fill-rule="evenodd" clip-rule="evenodd" d="M15 39H11V36H15V39Z" fill="#EE4037"/>
<path fill-rule="evenodd" clip-rule="evenodd" d="M25 39H17V36H25V39Z" fill="#EE4037"/>
<path fill-rule="evenodd" clip-rule="evenodd" d="M17 41H25V44H17V41Z" fill="#EE4037"/>
<path fill-rule="evenodd" clip-rule="evenodd" d="M14 49H11V46H14V49Z" fill="#EE4037"/>
<path fill-rule="evenodd" clip-rule="evenodd" d="M28 49H17V46H28V49Z" fill="#EE4037"/>
<path fill-rule="evenodd" clip-rule="evenodd" d="M25 34H17V32H25V34Z" fill="#EE4037"/>
<path fill-rule="evenodd" clip-rule="evenodd" d="M17 51H25V53H17V51Z" fill="#EE4037"/>
<path fill-rule="evenodd" clip-rule="evenodd" d="M15 15H11V13H15V15Z" fill="#EE4037"/>
<path fill-rule="evenodd" clip-rule="evenodd" d="M39 15H17V13H39V15Z" fill="#EE4037"/>
<path fill-rule="evenodd" clip-rule="evenodd" d="M15 15H11V13H15V15Z" fill="#EE4037"/>
<path fill-rule="evenodd" clip-rule="evenodd" d="M39 15H17V13H39V15Z" fill="#EE4037"/>
<path fill-rule="evenodd" clip-rule="evenodd" d="M44 20H28V17H44V20Z" fill="#EE4037"/>
<path fill-rule="evenodd" clip-rule="evenodd" d="M17 17H25V20H17V17Z" fill="#EE4037"/>
<path fill-rule="evenodd" clip-rule="evenodd" d="M44 20H28V17H44V20Z" fill="#EE4037"/>
<path fill-rule="evenodd" clip-rule="evenodd" d="M17 17H25V20H17V17Z" fill="#EE4037"/>
<path fill-rule="evenodd" clip-rule="evenodd" d="M6 3.33398C6 2.59724 6.59614 2 7.33152 2H55.6685C56.4039 2 57 2.59724 57 3.33398V25.7755C57 26.5122 56.4039 27.1095 55.6685 27.1095C54.9331 27.1095 54.337 26.5122 54.337 25.7755V4.66797H8.66304V56.332H48.5948C49.3302 56.332 49.9263 56.9293 49.9263 57.666C49.9263 58.4028 49.3302 59 48.5948 59H7.33152C6.59614 59 6 58.4028 6 57.666V3.33398Z" fill="#EE4037"/>
</svg>
