<svg width="48" height="45" viewBox="0 0 48 45" fill="none" xmlns="http://www.w3.org/2000/svg">
<path d="M11.2941 4.79874V43.5945C11.2941 44.3707 10.662 45 9.88235 45C9.10266 45 8.47059 44.3707 8.47059 43.5945V4.79874L2.41003 10.8325C1.8587 11.3814 0.964825 11.3814 0.413496 10.8325C-0.137832 10.2836 -0.137832 9.39367 0.413496 8.84478L8.88408 0.411667C9.43541 -0.137222 10.3293 -0.137222 10.8806 0.411667L19.3512 8.84478C19.9025 9.39367 19.9025 10.2836 19.3512 10.8325C18.7999 11.3814 17.906 11.3814 17.3547 10.8325L11.2941 4.79874ZM24 5.62207C23.2203 5.62207 22.5882 4.9928 22.5882 4.21655C22.5882 3.44031 23.2203 2.81104 24 2.81104H46.5882C47.3679 2.81104 48 3.44031 48 4.21655C48 4.9928 47.3679 5.62207 46.5882 5.62207H24ZM24 16.8662C23.2203 16.8662 22.5882 16.2369 22.5882 15.4607C22.5882 14.6845 23.2203 14.0552 24 14.0552H40.9412C41.7209 14.0552 42.3529 14.6845 42.3529 15.4607C42.3529 16.2369 41.7209 16.8662 40.9412 16.8662H24ZM24 28.1104C23.2203 28.1104 22.5882 27.4811 22.5882 26.7048C22.5882 25.9286 23.2203 25.2993 24 25.2993H35.2941C36.0738 25.2993 36.7059 25.9286 36.7059 26.7048C36.7059 27.4811 36.0738 28.1104 35.2941 28.1104H24ZM24 39.3545C23.2203 39.3545 22.5882 38.7252 22.5882 37.949C22.5882 37.1727 23.2203 36.5435 24 36.5435H29.6471C30.4268 36.5435 31.0588 37.1727 31.0588 37.949C31.0588 38.7252 30.4268 39.3545 29.6471 39.3545H24Z" fill="#EE4037"/>
</svg>
