<svg width="50" height="50" viewBox="0 0 50 50" fill="none" xmlns="http://www.w3.org/2000/svg">
<g clip-path="url(#clip0_22_18955)">
<path d="M25 0C20.0555 0 15.222 1.46622 11.1108 4.21326C6.99953 6.9603 3.79521 10.8648 1.90302 15.4329C0.010832 20.0011 -0.484251 25.0277 0.480379 29.8773C1.44501 34.7268 3.82603 39.1814 7.32234 42.6777C10.8187 46.174 15.2732 48.555 20.1228 49.5196C24.9723 50.4843 29.9989 49.9892 34.5671 48.097C39.1353 46.2048 43.0397 43.0005 45.7868 38.8893C48.5338 34.778 50 29.9445 50 25C49.9928 18.3718 47.3565 12.0172 42.6697 7.33032C37.9828 2.64348 31.6282 0.00723772 25 0ZM25 47.6562C20.519 47.6562 16.1387 46.3275 12.4129 43.838C8.68707 41.3485 5.78316 37.8101 4.06837 33.6702C2.35357 29.5303 1.9049 24.9749 2.77909 20.58C3.65329 16.1851 5.81109 12.1481 8.97962 8.97961C12.1482 5.81108 16.1851 3.65328 20.58 2.77908C24.9749 1.90489 29.5303 2.35356 33.6702 4.06835C37.8101 5.78315 41.3485 8.68706 43.838 12.4129C46.3275 16.1387 47.6563 20.519 47.6563 25C47.649 31.0066 45.2597 36.7651 41.0124 41.0124C36.7651 45.2597 31.0066 47.649 25 47.6562Z" fill="#EE4037"/>
<path d="M35.1562 23.8281H26.1719V14.8438C26.1719 14.5329 26.0484 14.2349 25.8286 14.0151C25.6089 13.7953 25.3108 13.6719 25 13.6719C24.6892 13.6719 24.3911 13.7953 24.1714 14.0151C23.9516 14.2349 23.8281 14.5329 23.8281 14.8438V23.8281H14.8438C14.5329 23.8281 14.2349 23.9516 14.0151 24.1714C13.7953 24.3911 13.6719 24.6892 13.6719 25C13.6719 25.3108 13.7953 25.6089 14.0151 25.8286C14.2349 26.0484 14.5329 26.1719 14.8438 26.1719H23.8281V35.1562C23.8281 35.4671 23.9516 35.7651 24.1714 35.9849C24.3911 36.2047 24.6892 36.3281 25 36.3281C25.3108 36.3281 25.6089 36.2047 25.8286 35.9849C26.0484 35.7651 26.1719 35.4671 26.1719 35.1562V26.1719H35.1562C35.4671 26.1719 35.7651 26.0484 35.9849 25.8286C36.2047 25.6089 36.3281 25.3108 36.3281 25C36.3281 24.6892 36.2047 24.3911 35.9849 24.1714C35.7651 23.9516 35.4671 23.8281 35.1562 23.8281Z" fill="#EE4037"/>
</g>
<defs>
<clipPath id="clip0_22_18955">
<rect width="50" height="50" fill="white"/>
</clipPath>
</defs>
</svg>
