<svg width="33" height="27" viewBox="0 0 33 27" fill="none" xmlns="http://www.w3.org/2000/svg">
<path d="M30.1866 0.238364C30.1866 0.238364 33.2393 -0.93035 32.9849 1.90796C32.9002 3.07669 32.137 7.16718 31.5434 11.5916L29.5082 24.698C29.5082 24.698 29.3387 26.618 27.8123 26.9519C26.2859 27.2858 23.9964 25.7832 23.5723 25.4493C23.2331 25.1989 17.2125 21.4422 15.0925 19.6057C14.4989 19.1048 13.8205 18.103 15.1773 16.9343L24.0811 8.58638C25.0987 7.5846 26.1163 5.24718 21.8763 8.08549L10.0046 16.0161C10.0046 16.0161 8.64781 16.8508 6.10391 16.0996L0.591974 14.4299C0.591974 14.4299 -1.44319 13.1778 2.03355 11.9255C10.5134 8.00195 20.9436 3.99492 30.1866 0.238364Z" fill="#589BFB"/>
</svg>
