<svg width="34" height="20" viewBox="0 0 34 20" fill="none" xmlns="http://www.w3.org/2000/svg">
<path d="M20.6369 9.70318C20.0431 9.47993 20.0431 8.6273 20.0063 8.03355C19.8578 5.91861 20.6 2.6898 19.7094 1.31705C19.0788 0.50005 16.0353 0.574863 14.1804 0.686488C13.6603 0.7613 13.0297 0.871738 12.5844 1.09499C12.1391 1.31824 11.6938 1.68874 11.6938 2.02243C11.6938 2.50455 12.8077 2.43093 13.215 3.06149C13.6603 3.73005 13.6603 5.17642 13.6603 6.36392C13.6603 7.73667 13.437 9.55593 12.8813 9.62955C12.0275 9.66636 11.5454 8.81255 11.1 8.18199C10.2094 6.95767 9.31879 5.4353 8.65023 3.95093C8.31654 3.17193 8.1301 2.31811 7.64798 1.98443C6.90579 1.4643 5.56985 1.42749 4.27073 1.4643C3.08323 1.50111 1.3756 1.35268 1.04191 2.05805C0.781851 2.83705 1.33879 3.57924 1.63566 4.21099C3.15685 7.51343 4.78966 10.4086 6.79416 13.1541C8.65023 15.7143 10.3935 17.7556 13.8075 18.8315C14.773 19.1284 19.0028 19.9822 19.8567 18.8315C20.1535 18.3862 20.0799 17.3839 20.2283 16.6417C20.3768 15.8996 20.562 15.1574 21.2674 15.1206C21.8612 15.0837 22.1949 15.6027 22.5665 15.9744C22.975 16.3829 23.3087 16.7166 23.6056 17.0882C24.311 17.7936 25.0532 18.7579 25.9438 19.1295C27.1681 19.6497 29.061 19.5012 30.8422 19.4264C32.2898 19.3896 33.3288 19.0927 33.4405 18.2389C33.5153 17.5704 32.7719 16.6061 32.3266 16.0492C31.2127 14.6764 30.6938 14.2679 29.4315 13.0056C28.8745 12.4487 28.1692 11.8549 28.1692 11.1876C28.1324 10.779 28.466 10.4086 28.7629 10.0001C30.062 8.07036 31.3612 6.69761 32.5487 4.69311C32.8824 4.09936 33.6625 2.72661 33.3657 2.05805C33.032 1.31586 31.1759 1.53793 30.0252 1.53793C28.5408 1.53793 26.6112 1.4263 26.2395 1.72318C25.5341 2.2053 25.2372 2.98549 24.9035 3.72768C24.1614 5.4353 23.1591 7.17855 22.12 8.47768C21.7484 8.92299 21.0442 9.85042 20.6357 9.70199L20.6369 9.70318Z" fill="#589BFB"/>
</svg>
