<svg width="62" height="81" viewBox="0 0 62 81" fill="none" xmlns="http://www.w3.org/2000/svg">
<path d="M34.1273 2.333C32.9851 1.06162 31.013 1 29.7936 2.19757L25.1794 6.72917C23.9822 7.90497 23.9822 9.83416 25.1794 11.01L28.7893 14.5553C29.9866 15.7311 29.9866 17.6602 28.7893 18.836L25.1794 22.3813C23.9822 23.5571 23.9822 25.4863 25.1794 26.6621L28.7893 30.2074C29.9866 31.3832 29.9866 33.3124 28.7893 34.4882L25.1794 38.0335C23.9822 39.2093 23.9822 41.1385 25.1794 42.3143L28.9939 46.0605C30.1093 47.156 31.8791 47.2111 33.0606 46.1873L37.5428 42.3032C38.8667 41.156 38.9301 39.1232 37.6802 37.8956L34.2107 34.4882C33.0134 33.3124 33.0134 31.3832 34.2107 30.2074L37.8206 26.6621C39.0178 25.4863 39.0178 23.5571 37.8206 22.3813L34.2107 18.836C33.0134 17.6602 33.0134 15.7311 34.2107 14.5553L37.9526 10.8803C39.0978 9.75564 39.1549 7.92888 38.0822 6.73493L34.1273 2.333Z" fill="#589BFB"/>
<path d="M34.1273 34.333C32.9851 33.0616 31.013 33 29.7936 34.1976L25.1794 38.7292C23.9822 39.905 23.9822 41.8342 25.1794 43.01L28.7893 46.5553C29.9866 47.7311 29.9866 49.6602 28.7893 50.836L25.1794 54.3813C23.9822 55.5571 23.9822 57.4863 25.1794 58.6621L28.7893 62.2074C29.9866 63.3832 29.9866 65.3124 28.7893 66.4882L25.1794 70.0335C23.9822 71.2093 23.9822 73.1385 25.1794 74.3143L28.9939 78.0605C30.1093 79.156 31.8791 79.2111 33.0606 78.1873L37.5428 74.3032C38.8667 73.156 38.9301 71.1232 37.6802 69.8956L34.2107 66.4882C33.0134 65.3124 33.0134 63.3832 34.2107 62.2074L37.8206 58.6621C39.0178 57.4863 39.0178 55.5571 37.8206 54.3813L34.2107 50.836C33.0134 49.6602 33.0134 47.7311 34.2107 46.5553L37.9526 42.8803C39.0978 41.7556 39.1549 39.9289 38.0822 38.7349L34.1273 34.333Z" fill="#589BFB"/>
<path d="M22.6514 26.5442C21.5014 25.1843 19.4269 25.1198 18.1946 26.4056L13.9892 30.7938C12.8772 31.9542 12.8772 33.7849 13.9892 34.9453L17.5108 38.6199C18.6228 39.7803 18.6228 41.611 17.5108 42.7714L13.9892 46.446C12.8772 47.6064 12.8772 49.4371 13.9892 50.5975L17.5108 54.2721C18.6228 55.4325 18.6228 57.2631 17.5108 58.4235L13.9892 62.0982C12.8772 63.2586 12.8772 65.0892 13.9892 66.2496L17.4654 69.8769C18.5956 71.0562 20.4616 71.1146 21.6633 70.0082L25.7484 66.247C26.9846 65.1088 27.045 63.1774 25.8824 61.9642L22.4892 58.4235C21.3772 57.2631 21.3772 55.4325 22.4892 54.2721L26.0108 50.5975C27.1228 49.4371 27.1228 47.6064 26.0108 46.446L22.4892 42.7714C21.3772 41.611 21.3772 39.7803 22.4892 38.6199L26.1311 34.8198C27.1934 33.7112 27.2473 31.9794 26.2559 30.807L22.6514 26.5442Z" fill="#589BFB"/>
<path d="M22.6514 10.5442C21.5014 9.18432 19.4269 9.11979 18.1946 10.4056L13.9892 14.7938C12.8772 15.9542 12.8772 17.7849 13.9892 18.9453L17.5108 22.6199C18.6228 23.7803 18.6228 25.611 17.5108 26.7714L13.9892 30.446C12.8772 31.6064 12.8772 33.4371 13.9892 34.5975L17.5108 38.2721C18.6228 39.4325 18.6228 41.2631 17.5108 42.4235L13.9892 46.0982C12.8772 47.2586 12.8772 49.0892 13.9892 50.2496L17.4654 53.8769C18.5956 55.0562 20.4616 55.1146 21.6633 54.0082L25.7484 50.247C26.9846 49.1088 27.045 47.1774 25.8824 45.9642L22.4892 42.4235C21.3772 41.2631 21.3772 39.4325 22.4892 38.2721L26.0108 34.5975C27.1228 33.4371 27.1228 31.6064 26.0108 30.446L22.4892 26.7714C21.3772 25.611 21.3772 23.7803 22.4892 22.6199L26.1311 18.8198C27.1934 17.7112 27.2473 15.9794 26.2559 14.807L22.6514 10.5442Z" fill="#589BFB"/>
<path d="M2.29255 23.0006L6.28039 19.1456C7.49583 17.9707 9.44156 18.0315 10.5812 19.2801L14.1032 23.1387C15.1699 24.3073 15.1456 26.1034 14.0477 27.2428L10.5293 30.894C9.4003 32.0657 7.54309 32.1238 6.34307 31.0249L2.35165 27.3701C1.0767 26.2027 1.04964 24.2021 2.29255 23.0006Z" fill="#589BFB"/>
<path d="M48.2926 23.0006L52.2804 19.1456C53.4958 17.9707 55.4416 18.0315 56.5812 19.2801L60.1032 23.1387C61.1699 24.3073 61.1456 26.1034 60.0477 27.2428L56.5293 30.894C55.4003 32.0657 53.5431 32.1238 52.3431 31.0249L48.3516 27.3701C47.0767 26.2027 47.0496 24.2021 48.2926 23.0006Z" fill="#589BFB"/>
<path d="M45.6514 26.5442C44.5014 25.1843 42.4269 25.1198 41.1946 26.4056L36.9892 30.7938C35.8772 31.9542 35.8772 33.7849 36.9892 34.9453L40.5108 38.6199C41.6228 39.7803 41.6228 41.611 40.5108 42.7714L36.9892 46.446C35.8772 47.6064 35.8772 49.4371 36.9892 50.5975L40.5108 54.2721C41.6228 55.4325 41.6228 57.2631 40.5108 58.4235L36.9892 62.0982C35.8772 63.2586 35.8772 65.0892 36.9892 66.2496L40.4654 69.8769C41.5956 71.0562 43.4616 71.1146 44.6633 70.0082L48.7484 66.247C49.9846 65.1088 50.045 63.1774 48.8824 61.9642L45.4892 58.4235C44.3772 57.2631 44.3772 55.4325 45.4892 54.2721L49.0108 50.5975C50.1228 49.4371 50.1228 47.6064 49.0108 46.446L45.4892 42.7714C44.3772 41.611 44.3772 39.7803 45.4892 38.6199L49.1311 34.8198C50.1934 33.7112 50.2473 31.9794 49.2559 30.807L45.6514 26.5442Z" fill="#589BFB"/>
<path d="M45.6514 10.5442C44.5014 9.18432 42.4269 9.11979 41.1946 10.4056L36.9892 14.7938C35.8772 15.9542 35.8772 17.7849 36.9892 18.9453L40.5108 22.6199C41.6228 23.7803 41.6228 25.611 40.5108 26.7714L36.9892 30.446C35.8772 31.6064 35.8772 33.4371 36.9892 34.5975L40.5108 38.2721C41.6228 39.4325 41.6228 41.2631 40.5108 42.4235L36.9892 46.0982C35.8772 47.2586 35.8772 49.0892 36.9892 50.2496L40.4654 53.8769C41.5956 55.0562 43.4616 55.1146 44.6633 54.0082L48.7484 50.247C49.9846 49.1088 50.045 47.1774 48.8824 45.9642L45.4892 42.4235C44.3772 41.2631 44.3772 39.4325 45.4892 38.2721L49.0108 34.5975C50.1228 33.4371 50.1228 31.6064 49.0108 30.446L45.4892 26.7714C44.3772 25.611 44.3772 23.7803 45.4892 22.6199L49.1311 18.8198C50.1934 17.7112 50.2473 15.9794 49.2559 14.807L45.6514 10.5442Z" fill="#589BFB"/>
<circle cx="31.5" cy="73.5" r="7.5" fill="#EE4037"/>
</svg>
