<svg width="15" height="29" viewBox="0 0 15 29" fill="none" xmlns="http://www.w3.org/2000/svg">
<path d="M13.6601 0H9.47415C5.28821 0 1.02901 3.10697 1.02901 9.96301C0.941496 11.5522 1.29987 13.1343 2.06449 14.5344C2.82912 15.9345 3.97018 17.098 5.36146 17.8961L0.18136 27.0617C0.0626245 27.2609 0 27.488 0 27.7193C0 27.9506 0.0626245 28.1777 0.18136 28.377C0.288768 28.5594 0.441017 28.712 0.623968 28.8207C0.806919 28.9293 1.01464 28.9904 1.22785 28.9984H3.83359C4.09798 29.0111 4.35997 28.9435 4.58444 28.8047C4.8089 28.6658 4.98509 28.4624 5.08938 28.2216L9.89275 18.9007H10.2486V27.8281C10.2497 27.9876 10.2836 28.1453 10.3481 28.2915C10.4125 28.4377 10.5063 28.5695 10.6237 28.6789C10.741 28.7883 10.8796 28.873 11.0309 28.9279C11.1823 28.9828 11.3433 29.0068 11.5043 28.9984H13.7857C14.0931 29.0097 14.3927 28.9009 14.6198 28.6955C14.8469 28.4901 14.9833 28.2046 14.9996 27.9006V1.2635C15.0038 1.10164 14.9757 0.940556 14.9169 0.789446C14.8582 0.638337 14.7699 0.500166 14.6572 0.382828C14.5444 0.265491 14.4094 0.171287 14.2599 0.1056C14.1104 0.0399125 13.9492 0.00402906 13.7857 0H13.6601ZM10.3323 14.7892H9.71484C7.30793 14.7892 5.88471 12.8525 5.88471 9.61089C5.88471 5.57183 7.69513 4.13227 9.37997 4.13227H10.3637L10.3323 14.7892Z" fill="#589BFB"/>
</svg>
