<svg width="142" height="81" viewBox="0 0 142 81" fill="none" xmlns="http://www.w3.org/2000/svg">
<path d="M34.1273 2.333C32.9851 1.06162 31.013 1 29.7936 2.19757L25.1794 6.72917C23.9822 7.90497 23.9822 9.83416 25.1794 11.01L28.7893 14.5553C29.9866 15.7311 29.9866 17.6602 28.7893 18.836L25.1794 22.3813C23.9822 23.5571 23.9822 25.4863 25.1794 26.6621L28.7893 30.2074C29.9866 31.3832 29.9866 33.3124 28.7893 34.4882L25.1794 38.0335C23.9822 39.2093 23.9822 41.1385 25.1794 42.3143L28.9939 46.0605C30.1093 47.156 31.8791 47.2111 33.0606 46.1873L37.5428 42.3032C38.8667 41.156 38.9301 39.1232 37.6802 37.8956L34.2107 34.4882C33.0134 33.3124 33.0134 31.3832 34.2107 30.2074L37.8206 26.6621C39.0178 25.4863 39.0178 23.5571 37.8206 22.3813L34.2107 18.836C33.0134 17.6602 33.0134 15.7311 34.2107 14.5553L37.9526 10.8803C39.0978 9.75564 39.1549 7.92888 38.0822 6.73493L34.1273 2.333Z" fill="#589BFB"/>
<path d="M34.1273 34.333C32.9851 33.0616 31.013 33 29.7936 34.1976L25.1794 38.7292C23.9822 39.905 23.9822 41.8342 25.1794 43.01L28.7893 46.5553C29.9866 47.7311 29.9866 49.6602 28.7893 50.836L25.1794 54.3813C23.9822 55.5571 23.9822 57.4863 25.1794 58.6621L28.7893 62.2074C29.9866 63.3832 29.9866 65.3124 28.7893 66.4882L25.1794 70.0335C23.9822 71.2093 23.9822 73.1385 25.1794 74.3143L28.9939 78.0605C30.1093 79.156 31.8791 79.2111 33.0606 78.1873L37.5428 74.3032C38.8667 73.156 38.9301 71.1232 37.6802 69.8956L34.2107 66.4882C33.0134 65.3124 33.0134 63.3832 34.2107 62.2074L37.8206 58.6621C39.0178 57.4863 39.0178 55.5571 37.8206 54.3813L34.2107 50.836C33.0134 49.6602 33.0134 47.7311 34.2107 46.5553L37.9526 42.8803C39.0978 41.7556 39.1549 39.9289 38.0822 38.7349L34.1273 34.333Z" fill="#589BFB"/>
<path d="M22.6514 26.5442C21.5014 25.1843 19.4269 25.1198 18.1946 26.4056L13.9892 30.7938C12.8772 31.9542 12.8772 33.7849 13.9892 34.9453L17.5108 38.6199C18.6228 39.7803 18.6228 41.611 17.5108 42.7714L13.9892 46.446C12.8772 47.6064 12.8772 49.4371 13.9892 50.5975L17.5108 54.2721C18.6228 55.4325 18.6228 57.2631 17.5108 58.4235L13.9892 62.0982C12.8772 63.2586 12.8772 65.0892 13.9892 66.2496L17.4654 69.8769C18.5956 71.0562 20.4616 71.1146 21.6633 70.0082L25.7484 66.247C26.9846 65.1088 27.045 63.1774 25.8824 61.9642L22.4892 58.4235C21.3772 57.2631 21.3772 55.4325 22.4892 54.2721L26.0108 50.5975C27.1228 49.4371 27.1228 47.6064 26.0108 46.446L22.4892 42.7714C21.3772 41.611 21.3772 39.7803 22.4892 38.6199L26.1311 34.8198C27.1934 33.7112 27.2473 31.9794 26.2559 30.807L22.6514 26.5442Z" fill="#589BFB"/>
<path d="M22.6514 10.5442C21.5014 9.18432 19.4269 9.11979 18.1946 10.4056L13.9892 14.7938C12.8772 15.9542 12.8772 17.7849 13.9892 18.9453L17.5108 22.6199C18.6228 23.7803 18.6228 25.611 17.5108 26.7714L13.9892 30.446C12.8772 31.6064 12.8772 33.4371 13.9892 34.5975L17.5108 38.2721C18.6228 39.4325 18.6228 41.2631 17.5108 42.4235L13.9892 46.0982C12.8772 47.2586 12.8772 49.0892 13.9892 50.2496L17.4654 53.8769C18.5956 55.0562 20.4616 55.1146 21.6633 54.0082L25.7484 50.247C26.9846 49.1088 27.045 47.1774 25.8824 45.9642L22.4892 42.4235C21.3772 41.2631 21.3772 39.4325 22.4892 38.2721L26.0108 34.5975C27.1228 33.4371 27.1228 31.6064 26.0108 30.446L22.4892 26.7714C21.3772 25.611 21.3772 23.7803 22.4892 22.6199L26.1311 18.8198C27.1934 17.7112 27.2473 15.9794 26.2559 14.807L22.6514 10.5442Z" fill="#589BFB"/>
<path d="M2.29255 23.0006L6.28039 19.1456C7.49583 17.9707 9.44156 18.0315 10.5812 19.2801L14.1032 23.1387C15.1699 24.3073 15.1456 26.1034 14.0477 27.2428L10.5293 30.894C9.4003 32.0657 7.54309 32.1238 6.34307 31.0249L2.35165 27.3701C1.0767 26.2027 1.04964 24.2021 2.29255 23.0006Z" fill="#589BFB"/>
<path d="M48.2926 23.0006L52.2804 19.1456C53.4958 17.9707 55.4416 18.0315 56.5812 19.2801L60.1032 23.1387C61.1699 24.3073 61.1456 26.1034 60.0477 27.2428L56.5293 30.894C55.4003 32.0657 53.5431 32.1238 52.3431 31.0249L48.3516 27.3701C47.0767 26.2027 47.0496 24.2021 48.2926 23.0006Z" fill="#589BFB"/>
<path d="M45.6514 26.5442C44.5014 25.1843 42.4269 25.1198 41.1946 26.4056L36.9892 30.7938C35.8772 31.9542 35.8772 33.7849 36.9892 34.9453L40.5108 38.6199C41.6228 39.7803 41.6228 41.611 40.5108 42.7714L36.9892 46.446C35.8772 47.6064 35.8772 49.4371 36.9892 50.5975L40.5108 54.2721C41.6228 55.4325 41.6228 57.2631 40.5108 58.4235L36.9892 62.0982C35.8772 63.2586 35.8772 65.0892 36.9892 66.2496L40.4654 69.8769C41.5956 71.0562 43.4616 71.1146 44.6633 70.0082L48.7484 66.247C49.9846 65.1088 50.045 63.1774 48.8824 61.9642L45.4892 58.4235C44.3772 57.2631 44.3772 55.4325 45.4892 54.2721L49.0108 50.5975C50.1228 49.4371 50.1228 47.6064 49.0108 46.446L45.4892 42.7714C44.3772 41.611 44.3772 39.7803 45.4892 38.6199L49.1311 34.8198C50.1934 33.7112 50.2473 31.9794 49.2559 30.807L45.6514 26.5442Z" fill="#589BFB"/>
<path d="M45.6514 10.5442C44.5014 9.18432 42.4269 9.11979 41.1946 10.4056L36.9892 14.7938C35.8772 15.9542 35.8772 17.7849 36.9892 18.9453L40.5108 22.6199C41.6228 23.7803 41.6228 25.611 40.5108 26.7714L36.9892 30.446C35.8772 31.6064 35.8772 33.4371 36.9892 34.5975L40.5108 38.2721C41.6228 39.4325 41.6228 41.2631 40.5108 42.4235L36.9892 46.0982C35.8772 47.2586 35.8772 49.0892 36.9892 50.2496L40.4654 53.8769C41.5956 55.0562 43.4616 55.1146 44.6633 54.0082L48.7484 50.247C49.9846 49.1088 50.045 47.1774 48.8824 45.9642L45.4892 42.4235C44.3772 41.2631 44.3772 39.4325 45.4892 38.2721L49.0108 34.5975C50.1228 33.4371 50.1228 31.6064 49.0108 30.446L45.4892 26.7714C44.3772 25.611 44.3772 23.7803 45.4892 22.6199L49.1311 18.8198C50.1934 17.7112 50.2473 15.9794 49.2559 14.807L45.6514 10.5442Z" fill="#589BFB"/>
<path d="M80.1016 23.625V35H77.7656V23.625H80.1016ZM83.6016 23.625V25.4609H74.3203V23.625H83.6016ZM95.9292 29.0469V29.5859C95.9292 30.4505 95.812 31.2266 95.5776 31.9141C95.3432 32.6016 95.0125 33.1875 94.5854 33.6719C94.1583 34.151 93.6479 34.5182 93.0542 34.7734C92.4656 35.0286 91.812 35.1562 91.0932 35.1562C90.3797 35.1562 89.726 35.0286 89.1323 34.7734C88.5438 34.5182 88.0333 34.151 87.601 33.6719C87.1688 33.1875 86.8328 32.6016 86.5932 31.9141C86.3589 31.2266 86.2417 30.4505 86.2417 29.5859V29.0469C86.2417 28.1771 86.3589 27.401 86.5932 26.7188C86.8276 26.0312 87.1583 25.4453 87.5854 24.9609C88.0177 24.4766 88.5281 24.1068 89.1167 23.8516C89.7104 23.5964 90.3641 23.4688 91.0776 23.4688C91.7964 23.4688 92.45 23.5964 93.0385 23.8516C93.6323 24.1068 94.1427 24.4766 94.5698 24.9609C95.0021 25.4453 95.3354 26.0312 95.5698 26.7188C95.8094 27.401 95.9292 28.1771 95.9292 29.0469ZM93.562 29.5859V29.0312C93.562 28.4271 93.5073 27.8958 93.3979 27.4375C93.2885 26.9792 93.1271 26.5938 92.9135 26.2812C92.7 25.9688 92.4396 25.7344 92.1323 25.5781C91.825 25.4167 91.4734 25.3359 91.0776 25.3359C90.6818 25.3359 90.3302 25.4167 90.0229 25.5781C89.7208 25.7344 89.463 25.9688 89.2495 26.2812C89.0411 26.5938 88.8823 26.9792 88.7729 27.4375C88.6635 27.8958 88.6089 28.4271 88.6089 29.0312V29.5859C88.6089 30.1849 88.6635 30.7161 88.7729 31.1797C88.8823 31.638 89.0438 32.026 89.2573 32.3438C89.4708 32.6562 89.7313 32.8932 90.0385 33.0547C90.3458 33.2161 90.6974 33.2969 91.0932 33.2969C91.4891 33.2969 91.8406 33.2161 92.1479 33.0547C92.4552 32.8932 92.713 32.6562 92.9214 32.3438C93.1297 32.026 93.2885 31.638 93.3979 31.1797C93.5073 30.7161 93.562 30.1849 93.562 29.5859ZM99.5536 23.625H101.905V27.1172C101.905 27.6172 101.981 28.0078 102.132 28.2891C102.288 28.5703 102.522 28.7682 102.835 28.8828C103.153 28.9922 103.546 29.0469 104.015 29.0469C104.192 29.0469 104.4 29.0391 104.64 29.0234C104.884 29.0078 105.134 28.9844 105.39 28.9531C105.645 28.9167 105.89 28.8776 106.124 28.8359C106.358 28.7891 106.554 28.737 106.71 28.6797V30.5078C106.554 30.5599 106.358 30.6094 106.124 30.6562C105.89 30.7031 105.645 30.7448 105.39 30.7812C105.134 30.8125 104.884 30.8359 104.64 30.8516C104.4 30.8672 104.192 30.875 104.015 30.875C103.108 30.875 102.322 30.7448 101.655 30.4844C100.989 30.224 100.47 29.8177 100.101 29.2656C99.7359 28.7083 99.5536 27.9922 99.5536 27.1172V23.625ZM106.218 23.625H108.561V35H106.218V23.625ZM114.811 23.625V35H112.467V23.625H114.811ZM121.514 23.625L117.155 30.3047H114.288L113.991 28.2188H115.905L118.67 23.625H121.514ZM119.1 35L115.913 29.9141L117.538 28.2422L121.881 35H119.1ZM129.295 25.5703L126.201 35H123.709L127.935 23.625H129.521L129.295 25.5703ZM131.865 35L128.764 25.5703L128.514 23.625H130.115L134.365 35H131.865ZM131.724 30.7656V32.6016H125.717V30.7656H131.724Z" fill="#EE4037"/>
<path d="M79.4453 48.9453H76.5469V47.1172H79.4453C79.8932 47.1172 80.2578 47.0443 80.5391 46.8984C80.8203 46.7474 81.026 46.5391 81.1562 46.2734C81.2865 46.0078 81.3516 45.7083 81.3516 45.375C81.3516 45.0365 81.2865 44.7214 81.1562 44.4297C81.026 44.138 80.8203 43.9036 80.5391 43.7266C80.2578 43.5495 79.8932 43.4609 79.4453 43.4609H77.3594V53H75.0156V41.625H79.4453C80.3359 41.625 81.099 41.7865 81.7344 42.1094C82.375 42.4271 82.8646 42.8672 83.2031 43.4297C83.5417 43.9922 83.7109 44.6354 83.7109 45.3594C83.7109 46.0938 83.5417 46.7292 83.2031 47.2656C82.8646 47.8021 82.375 48.2161 81.7344 48.5078C81.099 48.7995 80.3359 48.9453 79.4453 48.9453ZM96.5385 47.0469V47.5859C96.5385 48.4505 96.4214 49.2266 96.187 49.9141C95.9526 50.6016 95.6219 51.1875 95.1948 51.6719C94.7677 52.151 94.2573 52.5182 93.6635 52.7734C93.075 53.0286 92.4214 53.1562 91.7026 53.1562C90.9891 53.1562 90.3354 53.0286 89.7417 52.7734C89.1531 52.5182 88.6427 52.151 88.2104 51.6719C87.7781 51.1875 87.4422 50.6016 87.2026 49.9141C86.9682 49.2266 86.851 48.4505 86.851 47.5859V47.0469C86.851 46.1771 86.9682 45.401 87.2026 44.7188C87.437 44.0312 87.7677 43.4453 88.1948 42.9609C88.6271 42.4766 89.1375 42.1068 89.726 41.8516C90.3198 41.5964 90.9734 41.4688 91.687 41.4688C92.4057 41.4688 93.0594 41.5964 93.6479 41.8516C94.2417 42.1068 94.7521 42.4766 95.1792 42.9609C95.6115 43.4453 95.9448 44.0312 96.1792 44.7188C96.4188 45.401 96.5385 46.1771 96.5385 47.0469ZM94.1714 47.5859V47.0312C94.1714 46.4271 94.1167 45.8958 94.0073 45.4375C93.8979 44.9792 93.7365 44.5938 93.5229 44.2812C93.3094 43.9688 93.049 43.7344 92.7417 43.5781C92.4344 43.4167 92.0828 43.3359 91.687 43.3359C91.2911 43.3359 90.9396 43.4167 90.6323 43.5781C90.3302 43.7344 90.0724 43.9688 89.8589 44.2812C89.6505 44.5938 89.4917 44.9792 89.3823 45.4375C89.2729 45.8958 89.2182 46.4271 89.2182 47.0312V47.5859C89.2182 48.1849 89.2729 48.7161 89.3823 49.1797C89.4917 49.638 89.6531 50.026 89.8667 50.3438C90.0802 50.6562 90.3406 50.8932 90.6479 51.0547C90.9552 51.2161 91.3068 51.2969 91.7026 51.2969C92.0984 51.2969 92.45 51.2161 92.7573 51.0547C93.0646 50.8932 93.3224 50.6562 93.5307 50.3438C93.7391 50.026 93.8979 49.638 94.0073 49.1797C94.1167 48.7161 94.1714 48.1849 94.1714 47.5859ZM106.686 49.2266H109.022C108.976 49.9922 108.765 50.6719 108.39 51.2656C108.02 51.8594 107.502 52.3229 106.835 52.6562C106.173 52.9896 105.377 53.1562 104.444 53.1562C103.715 53.1562 103.061 53.0312 102.483 52.7812C101.905 52.526 101.41 52.1615 100.999 51.6875C100.593 51.2135 100.283 50.6406 100.069 49.9688C99.8557 49.2969 99.749 48.5443 99.749 47.7109V46.9219C99.749 46.0885 99.8583 45.3359 100.077 44.6641C100.301 43.987 100.619 43.4115 101.03 42.9375C101.447 42.4635 101.944 42.099 102.522 41.8438C103.101 41.5885 103.746 41.4609 104.46 41.4609C105.408 41.4609 106.207 41.6328 106.858 41.9766C107.515 42.3203 108.022 42.7943 108.382 43.3984C108.746 44.0026 108.965 44.6901 109.038 45.4609H106.694C106.668 45.0026 106.577 44.6146 106.421 44.2969C106.265 43.974 106.028 43.7318 105.71 43.5703C105.397 43.4036 104.981 43.3203 104.46 43.3203C104.069 43.3203 103.728 43.3932 103.436 43.5391C103.145 43.6849 102.9 43.9062 102.702 44.2031C102.504 44.5 102.356 44.875 102.257 45.3281C102.163 45.776 102.116 46.3021 102.116 46.9062V47.7109C102.116 48.2995 102.16 48.8177 102.249 49.2656C102.338 49.7083 102.473 50.0833 102.655 50.3906C102.843 50.6927 103.082 50.9219 103.374 51.0781C103.671 51.2292 104.028 51.3047 104.444 51.3047C104.934 51.3047 105.338 51.2266 105.655 51.0703C105.973 50.9141 106.215 50.6823 106.382 50.375C106.554 50.0677 106.655 49.6849 106.686 49.2266ZM117.28 41.625V53H114.944V41.625H117.28ZM120.78 41.625V43.4609H111.498V41.625H120.78ZM127.764 43.5703L124.67 53H122.178L126.404 41.625H127.99L127.764 43.5703ZM130.334 53L127.232 43.5703L126.982 41.625H128.584L132.834 53H130.334ZM130.193 48.7656V50.6016H124.185V48.7656H130.193Z" fill="#589BFB"/>
<circle cx="31.5" cy="73.5" r="7.5" fill="#EE4037"/>
</svg>
