<svg width="512" height="512" viewBox="0 0 512 512" fill="none" xmlns="http://www.w3.org/2000/svg">
<path d="M128 0C110.4 0 96 14.4 96 32V480C96 497.6 110.4 512 128 512H448C465.6 512 480 497.6 480 480V128L352 0H128Z" fill="#E2E5E7"/>
<path d="M384 128H480L352 0V96C352 113.6 366.4 128 384 128Z" fill="#B0B7BD"/>
<path d="M480 224L384 128H480V224Z" fill="#CAD1D8"/>
<path d="M416 416C416 424.8 408.8 432 400 432H48C39.2 432 32 424.8 32 416V256C32 247.2 39.2 240 48 240H400C408.8 240 416 247.2 416 256V416Z" fill="#F15642"/>
<path d="M253 298.011C253 287.531 269.896 287.131 269.896 298.011V371.051C269.896 381.675 253 381.931 253 371.051V298.011Z" fill="white"/>
<path d="M182.936 378.528C178.456 378.528 175 375.072 175 370.592V297.936C175 293.328 178.456 290 182.936 290H228.856C240.632 290 240.376 306.624 228.856 306.624H192.024V325.824H224.264C235.64 325.824 235.64 342.592 224.264 342.592H192.024V361.776H231.048C242.696 361.776 243.576 378.528 231.048 378.528H182.936V378.528Z" fill="white"/>
<path d="M283 336.088C283 311.4 298.488 290.168 327.912 290.168C339.032 290.168 347.864 293.496 357.208 301.56C360.664 304.744 361.032 310.392 357.576 313.96C354.12 317.016 348.888 316.648 345.816 313.576C340.568 308.072 335.192 306.552 327.912 306.552C308.216 306.552 298.744 320.504 298.744 336.104C298.744 351.976 308.088 366.552 327.912 366.552C335.192 366.552 341.976 363.608 347.864 358.36C351.832 355.304 357.336 356.824 359.624 359.896C361.672 362.712 362.696 367.448 358.216 371.928C349.256 380.248 338.52 381.912 327.896 381.912C296.952 381.912 283 360.792 283 336.088Z" fill="white"/>
<path d="M87 372.064V299.408C87 294.8 90.328 291.472 96.072 291.472C100.552 291.472 103.88 294.8 103.88 299.408V327.296H145.576V299.408C145.576 294.8 149.672 291.472 154.28 291.472C158.76 291.472 162.216 294.8 162.216 299.408V372.064C162.216 376.544 158.76 380 154.28 380C149.672 380 145.576 376.544 145.576 372.064V344.064H103.88V372.064C103.88 376.544 100.552 380 96.072 380C90.328 380 87 376.544 87 372.064Z" fill="white"/>
<path d="M400 432H96V448H400C408.8 448 416 440.8 416 432V416C416 424.8 408.8 432 400 432Z" fill="#CAD1D8"/>
</svg>
